<?xml version="1.0" encoding="UTF-8" standalone="no"?>
<svg
   viewBox="0 0 24 24"
   version="1.1"
   id="svg1"
   sodipodi:docname="phase_prepare.svg"
   inkscape:export-filename="phase_prepare.png"
   inkscape:export-xdpi="2048"
   inkscape:export-ydpi="2048"
   inkscape:version="1.4 (e7c3feb100, 2024-10-09)"
   xmlns:inkscape="http://www.inkscape.org/namespaces/inkscape"
   xmlns:sodipodi="http://sodipodi.sourceforge.net/DTD/sodipodi-0.dtd"
   xmlns="http://www.w3.org/2000/svg"
   xmlns:svg="http://www.w3.org/2000/svg">
  <defs
     id="defs1" />
  <sodipodi:namedview
     id="namedview1"
     pagecolor="#ffffff"
     bordercolor="#000000"
     borderopacity="0.25"
     inkscape:showpageshadow="2"
     inkscape:pageopacity="0.0"
     inkscape:pagecheckerboard="0"
     inkscape:deskcolor="#d1d1d1"
     inkscape:zoom="36.833333"
     inkscape:cx="12.040724"
     inkscape:cy="12"
     inkscape:window-width="2048"
     inkscape:window-height="1088"
     inkscape:window-x="0"
     inkscape:window-y="0"
     inkscape:window-maximized="1"
     inkscape:current-layer="svg1" />
  <path
     d="M6 2C4.9 2 4 2.9 4 4V20C4 21.1 4.9 22 6 22H10V20.1L20 10.1V8L14 2H6M13 3.5L18.5 9H13V3.5M20.1 13C20 13 19.8 13.1 19.7 13.2L18.7 14.2L20.8 16.3L21.8 15.3C22 15.1 22 14.7 21.8 14.5L20.5 13.2C20.4 13.1 20.3 13 20.1 13M18.1 14.8L12 20.9V23H14.1L20.2 16.9L18.1 14.8Z"
     id="path1"
     style="stroke:#8f8fe4;stroke-opacity:1;stroke-width:0.2;stroke-dasharray:none;fill:#adadeb;fill-opacity:1" />
</svg>
