<?xml version="1.0" encoding="UTF-8" standalone="no"?>
<svg
   viewBox="0 0 24 24"
   version="1.1"
   id="svg1"
   sodipodi:docname="phase_install.svg"
   inkscape:export-filename="phase_install.png"
   inkscape:export-xdpi="2048"
   inkscape:export-ydpi="2048"
   inkscape:version="1.4 (e7c3feb100, 2024-10-09)"
   xmlns:inkscape="http://www.inkscape.org/namespaces/inkscape"
   xmlns:sodipodi="http://sodipodi.sourceforge.net/DTD/sodipodi-0.dtd"
   xmlns="http://www.w3.org/2000/svg"
   xmlns:svg="http://www.w3.org/2000/svg">
  <defs
     id="defs1" />
  <sodipodi:namedview
     id="namedview1"
     pagecolor="#ffffff"
     bordercolor="#000000"
     borderopacity="0.25"
     inkscape:showpageshadow="2"
     inkscape:pageopacity="0.0"
     inkscape:pagecheckerboard="0"
     inkscape:deskcolor="#d1d1d1"
     inkscape:zoom="36.833333"
     inkscape:cx="12.013575"
     inkscape:cy="12"
     inkscape:window-width="2048"
     inkscape:window-height="1088"
     inkscape:window-x="0"
     inkscape:window-y="0"
     inkscape:window-maximized="1"
     inkscape:current-layer="svg1" />
  <path
     d="M7,3A3,3 0 0,1 10,6C10,7.29 9.19,8.39 8.04,8.81C8.58,13.81 13.08,14.77 15.19,14.96C15.61,13.81 16.71,13 18,13A3,3 0 0,1 21,16A3,3 0 0,1 18,19C16.69,19 15.57,18.16 15.16,17C10.91,16.8 9.44,15.19 8,13.39V15.17C9.17,15.58 10,16.69 10,18A3,3 0 0,1 7,21A3,3 0 0,1 4,18C4,16.69 4.83,15.58 6,15.17V8.83C4.83,8.42 4,7.31 4,6A3,3 0 0,1 7,3M7,5A1,1 0 0,0 6,6A1,1 0 0,0 7,7A1,1 0 0,0 8,6A1,1 0 0,0 7,5M7,17A1,1 0 0,0 6,18A1,1 0 0,0 7,19A1,1 0 0,0 8,18A1,1 0 0,0 7,17M18,15A1,1 0 0,0 17,16A1,1 0 0,0 18,17A1,1 0 0,0 19,16A1,1 0 0,0 18,15Z"
     id="path1"
     style="stroke:#ffffff;stroke-opacity:1;stroke-width:0.2;stroke-dasharray:none" />
</svg>
