<?xml version="1.0" encoding="UTF-8" standalone="no"?>
<svg
   viewBox="0 0 24 24"
   version="1.1"
   id="svg1"
   sodipodi:docname="phase_compile.svg"
   inkscape:export-filename="phase_compile.png"
   inkscape:export-xdpi="2048"
   inkscape:export-ydpi="2048"
   inkscape:version="1.4 (e7c3feb100, 2024-10-09)"
   xmlns:inkscape="http://www.inkscape.org/namespaces/inkscape"
   xmlns:sodipodi="http://sodipodi.sourceforge.net/DTD/sodipodi-0.dtd"
   xmlns="http://www.w3.org/2000/svg"
   xmlns:svg="http://www.w3.org/2000/svg">
  <defs
     id="defs1" />
  <sodipodi:namedview
     id="namedview1"
     pagecolor="#ffffff"
     bordercolor="#000000"
     borderopacity="0.25"
     inkscape:showpageshadow="2"
     inkscape:pageopacity="0.0"
     inkscape:pagecheckerboard="0"
     inkscape:deskcolor="#d1d1d1"
     inkscape:zoom="36.833333"
     inkscape:cx="12.040724"
     inkscape:cy="12"
     inkscape:window-width="2048"
     inkscape:window-height="1088"
     inkscape:window-x="0"
     inkscape:window-y="0"
     inkscape:window-maximized="1"
     inkscape:current-layer="svg1" />
  <path
     d="M16.06 13.09L21.69 18.68L18.37 21.96L12.78 16.37V15.45L15.14 13.09H16.06M16.97 10.56L16 9.6L11.21 14.4V16.37L5.58 22L2.3 18.68L7.89 13.09H9.86L10.64 12.31L6.8 8.46H5.5L2.69 5.62L5.31 3L8.11 5.8V7.11L12 10.95L14.66 8.29L13.7 7.28L15 5.97H12.34L11.69 5.32L15 2L15.66 2.66V5.32L16.97 4L20.25 7.28C21.34 8.38 21.34 10.17 20.25 11.26L18.28 9.25L16.97 10.56Z"
     id="path1"
     style="stroke:#8f8fe4;stroke-opacity:1;stroke-width:0.2;stroke-dasharray:none;fill:#adadeb;fill-opacity:1" />
</svg>
